<?xml version="1.0" encoding="UTF-8"?><svg id="Layer_2" xmlns="http://www.w3.org/2000/svg" viewBox="0 0 154 154"><defs><style>.cls-1{fill:#fff;}.cls-2{fill:#9289f8;}</style></defs><g id="Layer_1-2"><path class="cls-2" d="M0,4C0,1.79,1.79,0,4,0H150c2.21,0,4,1.79,4,4V150c0,2.21-1.79,4-4,4H4c-2.21,0-4-1.79-4-4V4Z"/><path class="cls-1" d="M45.84,42.88v8.24c0,.83-.15,1.44-.44,1.84-.29,.4-.76,.79-1.4,1.16-.75,.43-1.84,.8-3.28,1.12-1.41,.32-2.83,.48-4.24,.48-2.56,0-4.89-.44-7-1.32-2.08-.88-3.73-2.27-4.96-4.16-1.23-1.89-1.84-4.33-1.84-7.32,0-2.8,.61-5.16,1.84-7.08,1.25-1.92,2.92-3.37,5-4.36,2.11-.99,4.45-1.48,7.04-1.48,1.68,0,3.13,.19,4.36,.56,1.25,.35,2.21,.85,2.88,1.52,.67,.64,1,1.4,1,2.28,0,.67-.17,1.27-.52,1.8-.35,.51-.75,.91-1.2,1.2-.67-.4-1.51-.79-2.52-1.16-1.01-.37-2.17-.56-3.48-.56-1.41,0-2.67,.31-3.76,.92-1.09,.59-1.95,1.43-2.56,2.52-.59,1.07-.88,2.33-.88,3.8,0,1.6,.28,2.95,.84,4.04,.59,1.07,1.39,1.87,2.4,2.4,1.01,.53,2.17,.8,3.48,.8,.59,0,1.09-.05,1.52-.16,.45-.13,.8-.25,1.04-.36v-3.84h-4.28c-.16-.29-.32-.68-.48-1.16-.13-.48-.2-.99-.2-1.52,0-.96,.21-1.65,.64-2.08,.45-.43,1.03-.64,1.72-.64h6.76c.8,0,1.41,.23,1.84,.68,.45,.43,.68,1.04,.68,1.84Z"/><path class="cls-1" d="M49.92,47.28v-2.64h6.8v2.64c0,1.07,.27,1.84,.8,2.32,.56,.48,1.33,.72,2.32,.72,.61,0,1.12-.05,1.52-.16,.4-.11,.69-.21,.88-.32v-5.2h6.8v6.2c0,.67-.15,1.25-.44,1.76-.27,.48-.68,.89-1.24,1.24-.93,.59-2.05,1.03-3.36,1.32-1.28,.32-2.68,.48-4.2,.48-1.92,0-3.63-.28-5.12-.84-1.49-.59-2.67-1.49-3.52-2.72-.83-1.23-1.24-2.83-1.24-4.8Zm19.12-.92h-6.8v-10.72c.29-.08,.71-.16,1.24-.24,.56-.08,1.16-.12,1.8-.12,1.33,0,2.29,.23,2.88,.68,.59,.43,.88,1.27,.88,2.52v7.88Zm-12.32,0h-6.8v-10.72c.29-.08,.71-.16,1.24-.24,.56-.08,1.16-.12,1.8-.12,1.33,0,2.29,.23,2.88,.68,.59,.43,.88,1.27,.88,2.52v7.88Z"/><path class="cls-1" d="M76.48,48.32l-.24-4.48,9.24-1.52c-.05-.53-.32-1.07-.8-1.6-.48-.53-1.23-.8-2.24-.8-1.07,0-1.96,.35-2.68,1.04-.69,.69-1.07,1.68-1.12,2.96l.24,3.36c.27,1.23,.87,2.08,1.8,2.56,.96,.48,2.03,.72,3.2,.72s2.19-.15,3.2-.44c1.01-.29,1.83-.61,2.44-.96,.43,.27,.79,.64,1.08,1.12,.29,.48,.44,.99,.44,1.52,0,.88-.33,1.61-1,2.2-.64,.56-1.53,.97-2.68,1.24-1.15,.27-2.47,.4-3.96,.4-2.08,0-3.96-.39-5.64-1.16-1.65-.8-2.97-1.99-3.96-3.56-.96-1.57-1.44-3.55-1.44-5.92,0-1.76,.28-3.28,.84-4.56,.59-1.28,1.36-2.32,2.32-3.12,.96-.8,2.03-1.39,3.2-1.76,1.2-.4,2.43-.6,3.68-.6,1.89,0,3.55,.37,4.96,1.12,1.41,.72,2.52,1.72,3.32,3,.8,1.25,1.2,2.71,1.2,4.36,0,.91-.25,1.6-.76,2.08-.51,.48-1.21,.79-2.12,.92l-12.52,1.88Z"/><path class="cls-1" d="M111.56,49.2c0,2.03-.77,3.61-2.32,4.76-1.52,1.15-3.75,1.72-6.68,1.72-2.27,0-4.13-.32-5.6-.96-1.44-.67-2.16-1.69-2.16-3.08,0-.64,.13-1.19,.4-1.64,.27-.45,.59-.81,.96-1.08,.77,.43,1.65,.81,2.64,1.16,1.01,.32,2.17,.48,3.48,.48,1.71,0,2.56-.44,2.56-1.32,0-.37-.16-.67-.48-.88s-.85-.39-1.6-.52l-1.2-.24c-2.29-.45-4.01-1.17-5.16-2.16-1.15-.99-1.72-2.37-1.72-4.16,0-2,.81-3.56,2.44-4.68,1.63-1.12,3.75-1.68,6.36-1.68,1.31,0,2.49,.13,3.56,.4,1.09,.24,1.96,.64,2.6,1.2,.64,.53,.96,1.23,.96,2.08,0,.59-.12,1.11-.36,1.56-.21,.45-.49,.83-.84,1.12-.29-.19-.76-.37-1.4-.56-.61-.19-1.28-.35-2-.48-.72-.13-1.36-.2-1.92-.2-.88,0-1.56,.11-2.04,.32-.48,.19-.72,.49-.72,.92,0,.29,.13,.53,.4,.72,.27,.19,.77,.36,1.52,.52l1.24,.28c2.56,.59,4.37,1.4,5.44,2.44,1.09,1.01,1.64,2.33,1.64,3.96Z"/><path class="cls-1" d="M131.24,49.2c0,2.03-.77,3.61-2.32,4.76-1.52,1.15-3.75,1.72-6.68,1.72-2.27,0-4.13-.32-5.6-.96-1.44-.67-2.16-1.69-2.16-3.08,0-.64,.13-1.19,.4-1.64,.27-.45,.59-.81,.96-1.08,.77,.43,1.65,.81,2.64,1.16,1.01,.32,2.17,.48,3.48,.48,1.71,0,2.56-.44,2.56-1.32,0-.37-.16-.67-.48-.88s-.85-.39-1.6-.52l-1.2-.24c-2.29-.45-4.01-1.17-5.16-2.16-1.15-.99-1.72-2.37-1.72-4.16,0-2,.81-3.56,2.44-4.68,1.63-1.12,3.75-1.68,6.36-1.68,1.31,0,2.49,.13,3.56,.4,1.09,.24,1.96,.64,2.6,1.2,.64,.53,.96,1.23,.96,2.08,0,.59-.12,1.11-.36,1.56-.21,.45-.49,.83-.84,1.12-.29-.19-.76-.37-1.4-.56-.61-.19-1.28-.35-2-.48-.72-.13-1.36-.2-1.92-.2-.88,0-1.56,.11-2.04,.32-.48,.19-.72,.49-.72,.92,0,.29,.13,.53,.4,.72,.27,.19,.77,.36,1.52,.52l1.24,.28c2.56,.59,4.37,1.4,5.44,2.44,1.09,1.01,1.64,2.33,1.64,3.96Z"/><path class="cls-1" d="M28.68,70.36v-5.6h13.32c.19,.29,.35,.68,.48,1.16,.16,.48,.24,1,.24,1.56,0,.99-.23,1.72-.68,2.2-.43,.45-1.01,.68-1.76,.68h-11.6Zm7.36-5.6v5.6h-13.32c-.19-.29-.36-.68-.52-1.16-.13-.48-.2-1-.2-1.56,0-1.01,.21-1.75,.64-2.2,.45-.45,1.05-.68,1.8-.68h11.6Zm-7.28,4.52h7v19.68c-.29,.08-.75,.16-1.36,.24-.61,.08-1.24,.12-1.88,.12-1.39,0-2.36-.24-2.92-.72-.56-.51-.84-1.37-.84-2.6v-16.72Z"/><path class="cls-1" d="M64.79,80.8h-6.8v-3.56c0-1.09-.28-1.85-.84-2.28-.53-.45-1.2-.68-2-.68s-1.51,.15-2.12,.44c-.61,.29-1.15,.61-1.6,.96v-5.48c.61-.32,1.35-.6,2.2-.84,.85-.27,1.79-.4,2.8-.4,2.61,0,4.65,.67,6.12,2,1.49,1.31,2.24,3.27,2.24,5.88v3.96Zm-19.12-2.36h6.8v10.52c-.29,.08-.72,.16-1.28,.24-.53,.08-1.12,.12-1.76,.12-1.31,0-2.27-.23-2.88-.68-.59-.45-.88-1.29-.88-2.52v-7.68Zm12.32,0h6.8v10.52c-.29,.08-.72,.16-1.28,.24-.53,.08-1.12,.12-1.76,.12-1.31,0-2.27-.23-2.88-.68-.59-.45-.88-1.29-.88-2.52v-7.68Zm-5.52,3.56h-6.8v-19.08c.29-.08,.71-.16,1.24-.24,.56-.08,1.16-.12,1.8-.12,1.33,0,2.29,.23,2.88,.68,.59,.43,.88,1.27,.88,2.52v16.24Z"/><path class="cls-1" d="M72.26,82.32l-.24-4.48,9.24-1.52c-.05-.53-.32-1.07-.8-1.6-.48-.53-1.23-.8-2.24-.8-1.07,0-1.96,.35-2.68,1.04-.69,.69-1.07,1.68-1.12,2.96l.24,3.36c.27,1.23,.87,2.08,1.8,2.56,.96,.48,2.03,.72,3.2,.72s2.19-.15,3.2-.44c1.01-.29,1.83-.61,2.44-.96,.43,.27,.79,.64,1.08,1.12,.29,.48,.44,.99,.44,1.52,0,.88-.33,1.61-1,2.2-.64,.56-1.53,.97-2.68,1.24-1.15,.27-2.47,.4-3.96,.4-2.08,0-3.96-.39-5.64-1.16-1.65-.8-2.97-1.99-3.96-3.56-.96-1.57-1.44-3.55-1.44-5.92,0-1.76,.28-3.28,.84-4.56,.59-1.28,1.36-2.32,2.32-3.12s2.03-1.39,3.2-1.76c1.2-.4,2.43-.6,3.68-.6,1.89,0,3.55,.37,4.96,1.12,1.41,.72,2.52,1.72,3.32,3,.8,1.25,1.2,2.71,1.2,4.36,0,.91-.25,1.6-.76,2.08-.51,.48-1.21,.79-2.12,.92l-12.52,1.88Z"/><path class="cls-1" d="M40.64,117.04c-.35,.27-.8,.49-1.36,.68-.53,.19-1.16,.28-1.88,.28-.96,0-1.76-.12-2.4-.36-.61-.24-1.01-.65-1.2-1.24-.75-2.37-1.36-4.28-1.84-5.72s-.85-2.71-1.12-3.8h-.2c-.08,1.57-.15,3.01-.2,4.32-.03,1.28-.05,2.53-.08,3.76,0,1.2-.03,2.44-.08,3.72-.03,1.25-.08,2.64-.16,4.16-.35,.11-.8,.21-1.36,.32-.56,.11-1.12,.16-1.68,.16-1.15,0-2.05-.19-2.72-.56-.67-.37-1-1.05-1-2.04,0-.67,.03-1.57,.08-2.72,.05-1.17,.12-2.48,.2-3.92,.11-1.47,.2-3,.28-4.6,.11-1.6,.21-3.19,.32-4.76,.11-1.57,.2-3.04,.28-4.4,.21-.35,.68-.72,1.4-1.12,.72-.4,1.73-.6,3.04-.6,1.41,0,2.52,.23,3.32,.68,.83,.43,1.41,1.13,1.76,2.12,.32,.85,.67,1.87,1.04,3.04,.37,1.15,.75,2.32,1.12,3.52,.37,1.17,.71,2.23,1,3.16h.2c.64-2.21,1.28-4.37,1.92-6.48,.67-2.13,1.25-3.89,1.76-5.28,.4-.21,.92-.39,1.56-.52,.64-.16,1.33-.24,2.08-.24,1.31,0,2.37,.2,3.2,.6,.83,.37,1.31,.92,1.44,1.64,.11,.53,.21,1.35,.32,2.44,.13,1.09,.27,2.35,.4,3.76,.13,1.41,.27,2.89,.4,4.44,.13,1.52,.25,3,.36,4.44,.13,1.44,.24,2.75,.32,3.92,.08,1.15,.13,2.05,.16,2.72-.45,.27-.93,.45-1.44,.56-.48,.13-1.11,.2-1.88,.2-.99,0-1.84-.17-2.56-.52-.69-.35-1.07-1.03-1.12-2.04-.11-1.95-.19-3.76-.24-5.44-.05-1.68-.09-3.21-.12-4.6s-.07-2.6-.12-3.64h-.2c-.27,1.04-.65,2.35-1.16,3.92s-1.12,3.59-1.84,6.04Z"/><path class="cls-1" d="M55.12,115.28v-2.64h6.8v2.64c0,1.07,.27,1.84,.8,2.32,.56,.48,1.33,.72,2.32,.72,.61,0,1.12-.05,1.52-.16,.4-.11,.69-.21,.88-.32v-5.2h6.8v6.2c0,.67-.15,1.25-.44,1.76-.27,.48-.68,.89-1.24,1.24-.93,.59-2.05,1.03-3.36,1.32-1.28,.32-2.68,.48-4.2,.48-1.92,0-3.63-.28-5.12-.84-1.49-.59-2.67-1.49-3.52-2.72-.83-1.23-1.24-2.83-1.24-4.8Zm19.12-.92h-6.8v-10.72c.29-.08,.71-.16,1.24-.24,.56-.08,1.16-.12,1.8-.12,1.33,0,2.29,.23,2.88,.68,.59,.43,.88,1.27,.88,2.52v7.88Zm-12.32,0h-6.8v-10.72c.29-.08,.71-.16,1.24-.24,.56-.08,1.16-.12,1.8-.12,1.33,0,2.29,.23,2.88,.68,.59,.43,.88,1.27,.88,2.52v7.88Z"/><path class="cls-1" d="M94.8,117.2c0,2.03-.77,3.61-2.32,4.76-1.52,1.15-3.75,1.72-6.68,1.72-2.27,0-4.13-.32-5.6-.96-1.44-.67-2.16-1.69-2.16-3.08,0-.64,.13-1.19,.4-1.64,.27-.45,.59-.81,.96-1.08,.77,.43,1.65,.81,2.64,1.16,1.01,.32,2.17,.48,3.48,.48,1.71,0,2.56-.44,2.56-1.32,0-.37-.16-.67-.48-.88s-.85-.39-1.6-.52l-1.2-.24c-2.29-.45-4.01-1.17-5.16-2.16-1.15-.99-1.72-2.37-1.72-4.16,0-2,.81-3.56,2.44-4.68,1.63-1.12,3.75-1.68,6.36-1.68,1.31,0,2.49,.13,3.56,.4,1.09,.24,1.96,.64,2.6,1.2,.64,.53,.96,1.23,.96,2.08,0,.59-.12,1.11-.36,1.56-.21,.45-.49,.83-.84,1.12-.29-.19-.76-.37-1.4-.56-.61-.19-1.28-.35-2-.48-.72-.13-1.36-.2-1.92-.2-.88,0-1.56,.11-2.04,.32-.48,.19-.72,.49-.72,.92,0,.29,.13,.53,.4,.72,.27,.19,.77,.36,1.52,.52l1.24,.28c2.56,.59,4.37,1.4,5.44,2.44,1.09,1.01,1.64,2.33,1.64,3.96Z"/><path class="cls-1" d="M97.93,98.16c0-1.01,.35-1.87,1.04-2.56,.69-.69,1.59-1.04,2.68-1.04s1.99,.35,2.68,1.04c.69,.69,1.04,1.55,1.04,2.56s-.35,1.84-1.04,2.56c-.69,.69-1.59,1.04-2.68,1.04s-1.99-.35-2.68-1.04c-.69-.72-1.04-1.57-1.04-2.56Zm.32,14.28h6.8v10.52c-.29,.08-.72,.16-1.28,.24-.53,.08-1.12,.12-1.76,.12-1.31,0-2.27-.23-2.88-.68-.59-.45-.88-1.29-.88-2.52v-7.68Zm6.8,3.56h-6.8v-12.16c.29-.08,.71-.16,1.24-.24,.56-.08,1.16-.12,1.8-.12,1.33,0,2.29,.23,2.88,.68,.59,.43,.88,1.27,.88,2.52v9.32Z"/><path class="cls-1" d="M120.34,108.32c-1.33,0-2.49,.43-3.48,1.28-.96,.85-1.44,2.11-1.44,3.76s.47,2.88,1.4,3.68c.93,.8,2.09,1.2,3.48,1.2,.8,0,1.51-.09,2.12-.28,.64-.21,1.17-.43,1.6-.64,.51,.37,.88,.77,1.12,1.2,.27,.43,.4,.95,.4,1.56,0,1.07-.53,1.92-1.6,2.56-1.04,.64-2.53,.96-4.48,.96-2.21,0-4.15-.39-5.8-1.16-1.63-.77-2.89-1.92-3.8-3.44-.88-1.55-1.32-3.43-1.32-5.64,0-2.35,.49-4.28,1.48-5.8,.99-1.55,2.29-2.69,3.92-3.44,1.63-.77,3.4-1.16,5.32-1.16s3.36,.35,4.4,1.04c1.07,.69,1.6,1.59,1.6,2.68,0,.51-.12,.99-.36,1.44-.24,.43-.52,.8-.84,1.12-.45-.21-1-.41-1.64-.6-.64-.21-1.33-.32-2.08-.32Z"/></g></svg>